HIERARCHY
ROOT Hips
{
	OFFSET -0.001795 -0.223333 0.028219
	CHANNELS 6 Xposition Yposition Zposition Zrotation Yrotation Xrotation 
	JOINT LeftUpLeg
	{
		OFFSET 0.069520 -0.091406 -0.006815
		CHANNELS 3 Zrotation Yrotation Xrotation
		JOINT LeftLeg
		{
			OFFSET 0.034277 -0.375199 -0.004496
			CHANNELS 3 Zrotation Yrotation Xrotation
			JOINT LeftFoot
			{
				OFFSET -0.013596 -0.397961 -0.043693
				CHANNELS 3 Zrotation Yrotation Xrotation
				JOINT LeftToe
				{
					OFFSET 0.026358 -0.055791 0.119288
					CHANNELS 3 Zrotation Yrotation Xrotation
					End Site
					{
						OFFSET 0.000000 0.000000 0.000000
					}
				}
			}
		}
	}
	JOINT RightUpLeg
	{
		OFFSET -0.067670 -0.090522 -0.004320
		CHANNELS 3 Zrotation Yrotation Xrotation
		JOINT RightLeg
		{
			OFFSET -0.038290 -0.382569 -0.008850
			CHANNELS 3 Zrotation Yrotation Xrotation
			JOINT RightFoot
			{
				OFFSET 0.015774 -0.398415 -0.042312
				CHANNELS 3 Zrotation Yrotation Xrotation
				JOINT RightToe
				{
					OFFSET -0.025372 -0.048144 0.123348
					CHANNELS 3 Zrotation Yrotation Xrotation
					End Site
					{
						OFFSET 0.000000 0.000000 0.000000
					}
				}
			}
		}
	}
	JOINT Spine
	{
		OFFSET -0.002533 0.108963 -0.026696
		CHANNELS 3 Zrotation Yrotation Xrotation
		JOINT Spine1
		{
			OFFSET 0.005487 0.135180 0.001092
			CHANNELS 3 Zrotation Yrotation Xrotation
			JOINT Spine2
			{
				OFFSET 0.001457 0.052922 0.025425
				CHANNELS 3 Zrotation Yrotation Xrotation
				JOINT Neck
				{
					OFFSET -0.002778 0.213870 -0.042857
					CHANNELS 3 Zrotation Yrotation Xrotation
					JOINT Head
					{
						OFFSET 0.005152 0.064970 0.051349
						CHANNELS 3 Zrotation Yrotation Xrotation
						End Site
						{
							OFFSET 0.000000 0.000000 0.000000
						}
					}
				}
				JOINT LeftShoulder
				{
					OFFSET 0.078845 0.121749 -0.034090
					CHANNELS 3 Zrotation Yrotation Xrotation
					JOINT LeftArm
					{
						OFFSET 0.090977 0.030469 -0.008868
						CHANNELS 3 Zrotation Yrotation Xrotation
						JOINT LeftForeArm
						{
							OFFSET 0.259612 -0.012772 -0.027456
							CHANNELS 3 Zrotation Yrotation Xrotation
							JOINT LeftHand
							{
								OFFSET 0.249234 0.008986 -0.001171
								CHANNELS 3 Zrotation Yrotation Xrotation
								End Site
								{
									OFFSET 0.000000 0.000000 0.000000
								}
							}
						}
					}
				}
				JOINT RightShoulder
				{
					OFFSET -0.081759 0.118833 -0.038615
					CHANNELS 3 Zrotation Yrotation Xrotation
					JOINT RightArm
					{
						OFFSET -0.096012 0.032551 -0.009143
						CHANNELS 3 Zrotation Yrotation Xrotation
						JOINT RightForeArm
						{
							OFFSET -0.253742 -0.013329 -0.021401
							CHANNELS 3 Zrotation Yrotation Xrotation
							JOINT RightHand
							{
								OFFSET -0.255298 0.007772 -0.005559
								CHANNELS 3 Zrotation Yrotation Xrotation
								End Site
								{
									OFFSET 0.000000 0.000000 0.000000
								}
							}
						}
					}
				}
			}
		}
	}
}
MOTION
Frames: 7
Frame Time: 0.050000
0.000000 0.945076 0.000000 -1.800538 0.316381 1.384237 -0.356950 0.133745 1.363488 0.833752 -0.084459 -0.142156 -2.272148 -3.631310 2.225012 0.000000 0.000000 0.000000 -0.926892 0.210059 -2.006965 -0.013198 0.383980 9.664085 -1.398627 -2.805735 -1.721856 0.000000 0.000000 0.000000 -1.345311 -0.103653 4.108105 0.663892 -0.207228 -3.116291 0.090128 1.048976 8.797206 2.833894 -0.009128 -21.046706 0.000000 0.000000 0.000000 -25.005015 -3.241156 -0.790349 -44.359669 -6.726700 -3.109623 -8.869619 -22.352666 2.569598 0.000000 0.000000 0.000000 22.059004 5.746361 1.770392 50.598850 5.998435 -2.961944 2.557564 22.029751 1.259380 0.000000 0.000000 0.000000 
0.003492 0.943617 0.005725 -1.727875 0.186054 1.272880 -0.441537 0.216344 2.211651 0.739512 -0.048601 -0.781168 -2.710647 -4.959959 1.496473 0.000000 0.000000 0.000000 -1.110686 0.513263 -5.339489 0.230439 0.610124 16.809224 -2.116452 -3.996595 -3.368359 0.000000 0.000000 0.000000 -1.497928 -0.119549 4.923422 0.267904 -0.040806 -2.832717 0.164055 1.378175 8.438802 2.591589 0.321772 -22.780669 0.000000 0.000000 0.000000 -25.122375 -3.252253 -0.895340 -44.640679 -6.628004 -3.104925 -7.845323 -22.450085 2.367572 0.000000 0.000000 0.000000 21.334161 6.034125 2.008244 51.933596 5.887525 -3.043526 2.137532 23.184050 1.268342 0.000000 0.000000 0.000000 
0.006324 0.942238 0.012041 -1.449297 0.083576 0.711054 -0.739288 0.299489 2.965758 0.649961 -0.085802 0.372141 -3.183293 -7.121985 -0.365752 0.000000 0.000000 0.000000 -1.419340 0.959678 -10.522908 0.910143 0.798036 27.607431 -2.656275 -5.534266 -3.202602 0.000000 0.000000 0.000000 -1.511976 -0.150184 5.958994 0.131155 0.043005 -3.654208 -0.122285 0.649771 9.622785 1.918484 0.486223 -21.703745 0.000000 0.000000 0.000000 -24.297113 -3.806287 -0.185580 -44.683544 -8.013706 -2.812093 -8.145085 -21.077410 2.305281 0.000000 0.000000 0.000000 22.324265 7.297796 2.529791 50.617882 6.669492 -2.724565 1.859184 22.714861 1.158623 0.000000 0.000000 0.000000 
0.008139 0.941386 0.020219 -1.602765 0.482921 -0.212224 -0.109711 0.404818 4.416532 -0.236346 -0.015906 1.285960 -3.604402 -8.821880 -1.487191 0.000000 0.000000 0.000000 -1.633446 1.227619 -13.909480 1.132012 0.891685 34.637072 -2.567027 -5.639228 -2.347912 0.000000 0.000000 0.000000 -1.967086 -0.175792 7.836374 0.099910 0.064032 -3.763200 0.789420 0.168080 10.234142 0.973449 1.151472 -24.541279 0.000000 0.000000 0.000000 -25.605019 -4.072274 0.056276 -42.609520 -9.150922 -2.424530 -8.556242 -20.790116 2.359177 0.000000 0.000000 0.000000 21.981749 7.705601 2.649338 50.294700 7.025586 -2.597053 2.287823 23.792520 1.289259 0.000000 0.000000 0.000000 
0.008794 0.941424 0.031332 -1.493519 1.197358 -0.816239 -0.299947 0.544112 5.877504 -0.436615 0.006144 1.319460 -3.383130 -8.472910 -1.697212 0.000000 0.000000 0.000000 -2.249553 1.470279 -18.000569 2.442675 0.283772 39.625753 -2.616180 -6.326632 -0.829447 0.000000 0.000000 0.000000 -2.308000 -0.181916 8.855180 0.939293 -0.300349 -3.729453 0.263931 -1.050237 10.531422 0.296575 1.390487 -24.338096 0.000000 0.000000 0.000000 -25.645074 -4.381578 0.536206 -42.089589 -9.692945 -2.342796 -8.262322 -20.698083 2.320265 0.000000 0.000000 0.000000 21.471149 7.970680 2.561639 50.304091 6.679113 -2.696631 3.297095 24.627757 1.504597 0.000000 0.000000 0.000000 
0.008458 0.940667 0.046110 -1.697461 2.017398 -1.204299 -0.015013 0.633756 7.207239 -0.326004 -0.025774 1.862227 -3.261224 -8.914521 -2.679165 0.000000 0.000000 0.000000 -2.794457 1.597742 -21.267487 3.564643 -0.403348 38.903546 -2.909889 -7.085274 -0.780904 0.000000 0.000000 0.000000 -2.465728 -0.200591 9.773830 1.392968 -0.474707 -4.129534 0.907967 -2.290487 11.301212 -1.304034 2.186596 -26.056571 0.000000 0.000000 0.000000 -25.950468 -4.168046 0.755237 -41.760581 -10.030403 -2.399031 -8.229964 -20.962808 2.380472 0.000000 0.000000 0.000000 19.518704 7.882160 2.306030 51.689406 6.392920 -2.903655 3.483861 25.245477 1.553904 0.000000 0.000000 0.000000 
0.006903 0.938461 0.064460 -2.014516 2.000033 -1.601352 -0.177812 0.792730 8.892553 0.590464 -0.143550 1.986809 -2.508409 -7.833474 -3.623313 0.000000 0.000000 0.000000 -2.317461 1.762242 -22.392987 3.101196 -0.172937 33.625862 -2.665096 -6.465787 -0.762517 0.000000 0.000000 0.000000 -2.189977 -0.249645 10.580131 1.864426 -0.666442 -4.459853 0.928646 -2.318057 11.790056 -1.282006 2.194194 -26.623705 0.000000 0.000000 0.000000 -26.246040 -3.609284 0.425365 -41.343860 -10.766240 -2.198367 -8.259827 -21.070431 2.403934 0.000000 0.000000 0.000000 18.437988 7.497814 2.138027 52.677238 6.589700 -2.933937 3.781464 25.996719 1.677301 0.000000 0.000000 0.000000 
